<?xml version="1.0" standalone="no"?><!DOCTYPE svg PUBLIC "-//W3C//DTD SVG 1.1//EN" "http://www.w3.org/Graphics/SVG/1.1/DTD/svg11.dtd"><svg t="1523931006863" class="icon" style="" viewBox="0 0 1024 1024" version="1.1" xmlns="http://www.w3.org/2000/svg" p-id="3058" xmlns:xlink="http://www.w3.org/1999/xlink" width="200" height="200"><defs><style type="text/css"></style></defs><path d="M736 0 288 0c-52.8 0-96 43.2-96 96l0 832c0 52.8 43.2 96 96 96l448 0c52.8 0 96-43.2 96-96L832 96C832 43.2 788.8 0 736 0zM384 48l256 0 0 32L384 80 384 48zM512 960c-35.346 0-64-28.654-64-64s28.654-64 64-64 64 28.654 64 64S547.346 960 512 960zM768 768 256 768 256 128l512 0L768 768z" p-id="3059"></path></svg>