<?xml version="1.0" standalone="no"?><!DOCTYPE svg PUBLIC "-//W3C//DTD SVG 1.1//EN" "http://www.w3.org/Graphics/SVG/1.1/DTD/svg11.dtd"><svg t="1523859161175" class="icon" style="" viewBox="0 0 1024 1024" version="1.1" xmlns="http://www.w3.org/2000/svg" p-id="3130" xmlns:xlink="http://www.w3.org/1999/xlink" width="200" height="200"><defs><style type="text/css"></style></defs><path d="M933.863608 395.431098l21.4925-51.531654-57.129138-35.729759c2.503007-16.072047 2.503007-32.057113 0.220011-47.774073L955.535187 224.444818l-21.223371-51.715849-65.460898 15.176654c-9.359158-12.892635-20.686135-24.357757-33.805944-34.208103L849.910545 88.242763l-51.579749-21.579481L762.962264 123.342166c-16.164145-2.550079-32.328289-2.598174-48.086182-0.309038l-35.103496-56.776098-51.715849 21.089317 14.193257 65.281819c-12.896728 9.402137-24.490787 20.819165-34.342156 34.028001l-64.787562-15.315824-21.537526 51.53677 56.015781 36.173874c-2.509147 16.163121-2.509147 32.376385-0.14224 48.313356l-56.676837 34.967396 21.174252 51.80283 65.324798-14.236236c9.494235 12.847609 20.825304 24.312732 33.986045 34.072003l-15.310707 65.146743 51.532677 21.4925 36.397978-56.504922c16.078187 2.413979 32.283264 2.369977 47.952128-0.092098l35.95591 57.042157 51.667753-21.224394-15.176654-65.546855c12.713556-9.402137 24.173562-20.690228 33.845853-33.715893L933.863608 395.431098 933.863608 395.431098zM708.201056 355.673605c-39.667441-16.612353-58.428737-62.191434-41.814338-101.994975 16.609283-39.666418 62.276369-58.33664 101.991905-41.729403 39.71656 16.660448 58.429761 62.235436 41.816384 101.994975C793.584702 353.572758 747.918639 372.284935 708.201056 355.673605L708.201056 355.673605zM650.57766 699.356109 650.57766 626.286929l-86.948281-14.235213c-5.14723-20.549012-13.20679-39.937594-23.907503-57.671491l50.682309-72.263837-51.66673-51.624774-71.28965 51.311643c-17.815761-10.789741-37.251416-18.98233-58.027601-24.12956l-15.131629-86.550215-73.071226 0-14.056134 86.279039c-20.777209 5.060249-40.343847 13.161764-58.164724 23.865547l-71.098291-50.728358-51.714825 51.623751 50.008974 71.502497c-10.785647 17.913998-19.027355 37.430494-24.222681 58.341756l-85.872786 14.284331 0 73.070202 85.786829 15.175631c5.195326 20.86726 13.387915 40.432875 24.269753 58.384735l-50.727335 70.878281 51.667753 51.714825 71.637574-50.15019c17.907858 10.747785 37.382399 18.896372 58.158584 24.000624l14.332427 86.328158 73.112158 0 15.358803-86.551238c20.639063-5.194302 40.116673-13.429871 57.846476-24.220634l72.091922 50.639331 51.671846-51.714825-51.445696-71.458495c10.655687-17.773805 18.757203-37.117362 23.818475-57.759495l86.904279-15.266705L650.57766 699.356109zM358.378715 765.308193c-56.282864 0-101.905948-45.624107-101.905948-101.903901 0-56.278771 45.627177-101.858876 101.905948-101.858876 56.278771 0 101.859899 45.623084 101.859899 101.858876C460.238614 719.684086 414.657486 765.308193 358.378715 765.308193L358.378715 765.308193zM358.378715 765.308193" p-id="3131"></path></svg>